<svg id="Lager_1" data-name="Lager 1" xmlns="http://www.w3.org/2000/svg" viewBox="0 0 1220 460"><path d="M230.81,274.9c-47.74-.76-86.42-38.43-87.21-84.92a1.48,1.48,0,0,0-1.5-1.45h-46A1.49,1.49,0,0,0,94.56,190c.81,72.8,61.46,131.86,136.21,132.66a1.5,1.5,0,0,0,1.52-1.48V276.37A1.49,1.49,0,0,0,230.81,274.9Z"/><path d="M286.28,133.9H188.93a2.09,2.09,0,0,0-2.12,2.06v94.8a2.09,2.09,0,0,0,2.12,2.06h97.35a2.09,2.09,0,0,0,2.12-2.06V136A2.09,2.09,0,0,0,286.28,133.9Z"/><polygon points="429.45 236.08 521.21 236.08 521.21 215.13 429.45 215.13 429.45 153.95 535.93 153.95 535.93 133 404.49 133 404.49 323.56 536.73 323.56 536.73 302.61 429.45 302.61 429.45 236.08"/><polygon points="644.43 185.47 603.33 300.26 602.78 300.26 562 186.4 561.68 185.47 534.84 185.47 589.07 322.93 589.41 323.79 616.97 323.79 670.75 185.47 644.43 185.47"/><path d="M791.06,305.06V231c0-7.24-.37-13.57-5.06-23.49a33.1,33.1,0,0,0-9.1-12.62c-6.82-6.08-21.65-12.59-42.82-12.59-25.12,0-42.05,8.1-50.29,24.07-2.26,4.25-3.81,10.06-4.9,18.27l-.2,1.54h24.08L703,225c.65-4.1,1.08-6.17,4.33-12.17,4.16-6.94,13.86-10.76,27.32-10.76,20.57,0,32.37,7.32,32.37,20.07,0,11.73-3.61,14.33-18,18.47-2.39.8-7.36,1.58-15.2,2.39-7.36.79-14.27,1.84-21.13,3.21a134.74,134.74,0,0,0-20.61,5.9c-14.62,5.62-23,18.39-23,35,0,11.05,3.13,20,9.3,26.55,8.3,8.83,22.09,13.31,41,13.31,25,0,42.09-7.87,48.72-22.27.09,10.09.36,14,.87,17.87l.15,1.19h24.07l-.4-1.68A74.83,74.83,0,0,1,791.06,305.06Zm-24.08-58v12.53c0,17.33-3.71,29.59-11.34,37.49-7.28,7.54-18.27,11.2-33.6,11.2C705,308.27,694,299.76,694,286.6c0-14,5.38-22.12,34.79-27.56C748.9,255,762.21,252.12,767,247.05Z"/><path d="M966.24,182.26a54.58,54.58,0,0,0-28.86,7.83,40.78,40.78,0,0,0-15.89,17.73c-4.85-17.63-22-25.56-37.38-25.56-20.7,0-37.68,10.1-45.21,26.6V185.48H816.15V323.79h24.08V242.46c0-6.26,2.36-16.19,7.63-24.28,4.71-7.23,13.61-15.85,29.29-15.85,17.52,0,25.68,9.78,25.68,30.77v90.69h23.82V242.46c0-25.5,13.16-40.13,36.11-40.13,18.32,0,26.48,9.49,26.48,30.77v90.69h23.82V222.4C1013.06,204.09,1004.93,182.26,966.24,182.26Z"/></svg>